<svg xmlns="http://www.w3.org/2000/svg" width="157" height="32" viewBox="0 0 157 32" fill="none"><path d="M57.8683 16.5633C60.2036 15.8646 61.1018 14.2926 61.1018 12.3275V12.1965C61.1018 8.57205 58.5868 7 54.3653 7H47V27H54.9491C59.4401 27 62 25.1223 62 21.4105V21.3231C62 18.6594 60.6527 17.1747 57.8683 16.5633ZM50.7725 9.66376H53.8713C56.2964 9.66376 57.4192 10.4934 57.4192 12.3712V12.5022C57.4192 14.5546 56.4311 15.4279 53.9162 15.4279H50.7725V9.66376ZM58.2275 21.1485C58.2275 23.2009 57.0599 24.3362 54.5 24.3362H50.7725V17.9607H54.2305C57.0599 17.9607 58.2275 19.0087 58.2275 21.0611V21.1485Z" fill="#0A4296"></path><path d="M70.0376 12C66.6757 12 63.8965 13.4224 63.6276 16.7845H66.9895C67.1688 15.3621 68.0653 14.5431 69.8583 14.5431C71.8755 14.5431 72.5927 15.4914 72.5927 17.431V18.1638H70.71C66.4068 18.1638 63 19.3707 63 22.7328C63 25.75 65.2861 27 68.0205 27C70.3066 27 71.6514 26.181 72.5927 24.9741V26.7414H75.9994V17.2586C76.0443 13.3362 73.3996 12 70.0376 12ZM72.5479 21.6983C72.5479 23.5517 70.979 24.6293 68.8273 24.6293C67.124 24.6293 66.4068 23.8103 66.4068 22.6034C66.4068 20.8362 68.1101 20.2759 70.7548 20.2759H72.5479V21.6983Z" fill="#0A4296"></path><path d="M84.438 17.9914C82.1168 17.6034 81.4161 17.1724 81.4161 16.1379C81.4161 15.1034 82.292 14.4138 83.7372 14.4138C85.3139 14.4138 86.0584 15.0172 86.365 16.3534H89.5182C89.1679 13.0776 86.7591 12 83.781 12C81.0219 12 78.3066 13.4224 78.3066 16.3103C78.3066 19.0259 79.7518 20.1034 83.6058 20.7069C85.7518 21.0517 86.7591 21.5259 86.7591 22.6897C86.7591 23.8966 85.927 24.5431 84.1314 24.5431C82.1606 24.5431 81.3723 23.681 81.1971 22.2155H78C78.1314 25.2759 80.365 27 84.1314 27C87.8978 27 90 25.319 90 22.3879C89.9124 19.3707 87.854 18.5086 84.438 17.9914Z" fill="#0A4296"></path><path d="M99.1508 12C95.0585 12 92 14.9741 92 19.4569V19.6724C92 24.2414 95.0585 27 99.3231 27C103.028 27 105.483 25.3621 105.957 22.3017H102.726C102.468 23.7241 101.434 24.5 99.4092 24.5C96.9108 24.5 95.5323 22.9483 95.4462 20.2328H106V19.2845C105.957 14.1552 102.726 12 99.1508 12ZM95.4462 18.0345C95.7908 15.7931 97.1262 14.4569 99.1508 14.4569C101.218 14.4569 102.468 15.5776 102.64 18.0345H95.4462Z" fill="#0A4296"></path><path d="M111 5H109V27H111V5Z" fill="#0A4296"></path><path d="M120.537 12C117.627 12 114.94 13.2104 114.627 16.4957H117C117.224 14.7233 118.388 13.902 120.448 13.902C122.731 13.902 123.672 14.853 123.672 17.1873V18.2248H121.522C117.672 18.2248 114 19.3487 114 22.7205C114 25.6599 116.194 27 118.97 27C121.164 27 122.507 26.2651 123.627 24.9251V26.6974H126V17.1441C126 13.1239 123.403 12 120.537 12ZM123.627 21.6398C123.627 23.8876 121.701 25.1412 119.194 25.1412C117.09 25.1412 116.373 24.1902 116.373 22.7205C116.373 20.6023 118.567 19.8674 121.567 19.8674H123.627V21.6398Z" fill="#0A4296"></path><path d="M135.95 12C133.576 12 131.978 13.2353 131.288 14.6029V12.2647H129V27H131.288V18.0441C131.288 15.3971 133.187 13.9853 135.302 13.9853C137.633 13.9853 138.712 15.1324 138.712 17.7353V27H141V17.9559C141 13.6324 138.928 12 135.95 12Z" fill="#0A4296"></path><path d="M157 19.1758C157 13.9885 153.909 12 150.648 12C146.752 12 144 15.0259 144 19.4352V19.6513C144 24.1037 146.837 27 150.86 27C154.078 27 156.407 25.487 156.915 22.5908H154.671C154.375 24.2767 153.104 25.098 150.902 25.098C148.023 25.098 146.456 23.2824 146.329 19.9971H157V19.1758ZM146.414 18.0519C146.795 15.4582 148.319 13.8588 150.648 13.8588C152.977 13.8588 154.502 15.0692 154.713 18.0519H146.414Z" fill="#0A4296"></path><path d="M26.098 0.658436C25.7506 0.263374 25.1861 0 24.6216 0C24.0571 0 23.536 0.219479 23.1452 0.658436L17.5 6.58436L11.8983 0.658436C11.5074 0.219479 10.9864 0 10.4218 0C9.85732 0 9.2928 0.263374 8.94541 0.658436L0.564516 9.65706C0.217122 10.0082 0 10.535 0 11.0617V29.9369C0 31.0782 0.911911 32 2.04094 32H32.9591C34.0881 32 35 31.0782 35 29.9369V11.0617C35 10.535 34.7829 10.0082 34.4355 9.61317L26.098 0.658436ZM21.4082 14.6173V20.8505H13.5918V14.6173L17.5 10.4911L21.4082 14.6173ZM32.3945 29.3224H2.64888V11.3251L10.4218 2.94101L15.6762 8.51577L11.5074 12.9053C11.16 13.3004 10.9429 13.8272 10.9429 14.3539V21.465C10.9429 22.6063 11.8548 23.5281 12.9839 23.5281H21.9727C23.1017 23.5281 24.0136 22.6063 24.0136 21.465V14.3539C24.0136 13.8272 23.7965 13.3004 23.4491 12.9053L19.2804 8.51577L24.6216 2.94101L32.3945 11.2812V29.3224Z" fill="#0A4296"></path><path d="M57.9001 16.5842C60.2423 15.884 61.1431 14.3085 61.1431 12.3392V12.2079C61.1431 8.57549 58.6208 7 54.3869 7H47V27H54.9274C59.4315 27 61.9989 25.1182 61.9989 21.3983V21.3107C62.044 18.6411 60.6927 17.1532 57.9001 16.5842ZM50.7835 9.66958H53.8914C56.3236 9.66958 57.4497 10.5011 57.4497 12.3829V12.5142C57.4497 14.5711 56.4588 15.4464 53.9364 15.4464H50.7835V9.66958ZM58.2604 21.1794C58.2604 23.2363 57.0894 24.3742 54.522 24.3742H50.7835V17.9409H54.2517C57.0894 17.9409 58.2604 18.9912 58.2604 21.0481V21.1794Z" fill="#0A4296"></path><path d="M70.0376 12C66.6757 12 63.8965 13.4224 63.6276 16.7845H66.9895C67.1688 15.3621 68.0653 14.5431 69.8583 14.5431C71.8755 14.5431 72.5927 15.4914 72.5927 17.431V18.1638H70.71C66.4067 18.1638 63 19.3707 63 22.7328C63 25.75 65.2861 27 68.0205 27C70.3066 27 71.6513 26.181 72.5927 24.9741V26.6983H75.9994V17.2155C76.0443 13.2931 73.3995 12 70.0376 12ZM72.5479 21.6552C72.5479 23.5086 70.979 24.5862 68.8273 24.5862C67.124 24.5862 66.4067 23.7672 66.4067 22.5603C66.4067 20.7931 68.1101 20.2328 70.7548 20.2328H72.5479V21.6552Z" fill="#0A4296"></path><path d="M84.438 17.9914C82.1168 17.6034 81.4161 17.1724 81.4161 16.1379C81.4161 15.1034 82.292 14.4138 83.7372 14.4138C85.3139 14.4138 86.0584 15.0172 86.365 16.3534H89.5182C89.1679 13.0776 86.7591 12 83.781 12C81.0219 12 78.3066 13.4224 78.3066 16.3103C78.3066 19.0259 79.7518 20.1034 83.6058 20.7069C85.7518 21.0517 86.7591 21.5259 86.7591 22.6897C86.7591 23.8966 85.927 24.5431 84.1314 24.5431C82.1606 24.5431 81.3723 23.681 81.1971 22.2155H78C78.1314 25.2759 80.365 27 84.1314 27C87.8978 27 90 25.319 90 22.3879C89.9124 19.3707 87.854 18.5517 84.438 17.9914Z" fill="#0A4296"></path><path d="M99.1508 12C95.0585 12 92 14.9741 92 19.4569V19.6724C92 24.2414 95.0585 27 99.3231 27C103.028 27 105.483 25.3621 105.957 22.3017H102.726C102.468 23.7241 101.434 24.5 99.4092 24.5C96.9108 24.5 95.5323 22.9483 95.4462 20.2328H106V19.2845C105.957 14.1121 102.726 12 99.1508 12ZM95.4462 17.9914C95.7908 15.75 97.1262 14.4138 99.1508 14.4138C101.218 14.4138 102.468 15.5345 102.64 17.9914H95.4462Z" fill="#0A4296"></path><path d="M111 5H109V27H111V5Z" fill="#0A4296"></path><path d="M120.537 12C117.627 12 114.94 13.2104 114.627 16.4957H117C117.224 14.7233 118.388 13.902 120.448 13.902C122.731 13.902 123.672 14.853 123.672 17.1873V18.2248H121.522C117.672 18.2248 114 19.3487 114 22.7205C114 25.6599 116.194 27 118.97 27C121.164 27 122.507 26.2651 123.627 24.9251V26.6974H126V17.1441C126 13.1239 123.403 12 120.537 12ZM123.627 21.6398C123.627 23.8876 121.701 25.1412 119.194 25.1412C117.09 25.1412 116.373 24.1902 116.373 22.7205C116.373 20.6023 118.567 19.8674 121.567 19.8674H123.627V21.6398Z" fill="#0A4296"></path><path d="M135.949 12C133.575 12 131.978 13.2353 131.288 14.6029V12.2647H129V27H131.288V18.0441C131.288 15.3971 133.187 13.9853 135.302 13.9853C137.633 13.9853 138.712 15.1324 138.712 17.7353V27H140.999V17.9559C141.043 13.6765 138.971 12 135.949 12Z" fill="#0A4296"></path><path d="M157 19.1758C157 13.9885 153.909 12 150.648 12C146.752 12 144 15.0259 144 19.4352V19.6513C144 24.1037 146.837 27 150.86 27C154.078 27 156.407 25.487 156.915 22.5908H154.629C154.332 24.2767 153.062 25.098 150.86 25.098C147.98 25.098 146.414 23.2824 146.287 19.9971H156.958V19.1758H157ZM146.414 18.0951C146.795 15.5014 148.319 13.902 150.648 13.902C152.977 13.902 154.502 15.1124 154.713 18.0951H146.414Z" fill="#0A4296"></path><path d="M26.098 0.657534C25.7072 0.263014 25.1861 0 24.6216 0C24.0571 0 23.536 0.219178 23.1452 0.657534L17.5 6.57534L11.8983 0.657534C11.5074 0.219178 10.9864 0 10.4218 0C9.85732 0 9.2928 0.263014 8.94541 0.657534L0.564516 9.64384C0.217122 10.0384 0 10.5205 0 11.0904V29.9397C0 31.0795 0.911911 32 2.04094 32H32.9591C34.0881 32 35 31.0795 35 29.9397V11.0904C35 10.5644 34.7829 10.0384 34.4355 9.64384L26.098 0.657534ZM21.4082 14.5973V20.8219H13.5918V14.5973L17.5 10.4767L21.4082 14.5973ZM32.3511 29.2822H2.64888V11.3096L10.4218 2.98082L15.6762 8.54795L11.5074 12.9315C11.16 13.326 10.9429 13.8521 10.9429 14.3781V21.4795C10.9429 22.6192 11.8548 23.5397 12.9839 23.5397H21.9727C23.1017 23.5397 24.0136 22.6192 24.0136 21.4795V14.3342C24.0136 13.8082 23.7965 13.2822 23.4491 12.8877L19.2804 8.50411L24.6216 2.98082L32.3945 11.3096V29.2822H32.3511Z" fill="#0A4296"></path></svg>